<?xml version="1.0" standalone="no"?>
<!DOCTYPE svg PUBLIC "-//W3C//DTD SVG 20010904//EN"
 "http://www.w3.org/TR/2001/REC-SVG-20010904/DTD/svg10.dtd">
<svg version="1.0" xmlns="http://www.w3.org/2000/svg"
 width="192.000000pt" height="192.000000pt" viewBox="0 0 192.000000 192.000000"
 preserveAspectRatio="xMidYMid meet">
<metadata>
Created by potrace 1.11, written by Peter Selinger 2001-2013
</metadata>
<g transform="translate(0.000000,192.000000) scale(0.100000,-0.100000)"
fill="#000000" stroke="none">
<path d="M642 1828 c-17 -17 -17 -19 34 -177 45 -143 45 -143 72 -136 15 4 29
9 31 11 2 2 -15 68 -39 145 -50 161 -67 188 -98 157z"/>
<path d="M1113 1833 c-12 -4 -103 -267 -103 -296 0 -15 20 -27 45 -27 19 0
110 289 98 309 -11 17 -23 21 -40 14z"/>
<path d="M256 1545 c-9 -26 2 -38 92 -102 48 -34 104 -74 125 -90 l39 -27 18
24 c10 13 17 27 14 31 -2 4 -57 45 -123 93 -118 85 -153 100 -165 71z"/>
<path d="M1375 1479 c-146 -107 -143 -103 -120 -129 10 -11 24 -19 31 -16 7 3
65 44 129 91 95 70 116 90 113 108 -6 41 -40 29 -153 -54z"/>
<path d="M128 1113 c-22 -6 -31 -32 -17 -49 9 -11 48 -14 171 -14 l159 0 -3
33 -3 32 -145 1 c-80 1 -152 0 -162 -3z"/>
<path d="M1350 1085 l0 -35 159 0 c164 0 190 6 175 43 -8 23 -36 27 -191 27
l-143 0 0 -35z"/>
<path d="M872 1093 c-12 -24 227 -922 251 -937 21 -13 36 0 110 97 l60 79 111
-111 c61 -61 118 -111 126 -111 21 0 200 159 200 178 0 8 -46 61 -102 118 -56
57 -99 106 -96 109 3 3 48 17 99 31 98 27 126 43 116 67 -5 14 -814 485 -848
494 -10 3 -21 -3 -27 -14z m319 -211 c320 -184 422 -245 426 -258 2 -6 -36
-26 -87 -44 -49 -18 -90 -35 -90 -37 0 -3 47 -60 106 -126 l105 -122 -56 -53
c-31 -28 -62 -52 -69 -52 -7 0 -63 48 -125 106 -61 58 -114 104 -119 102 -4
-1 -35 -32 -67 -68 -68 -75 -71 -77 -78 -53 -2 10 -46 171 -96 358 -50 187
-94 348 -97 358 -3 10 0 17 8 17 8 0 115 -58 239 -128z"/>
<path d="M380 746 c-125 -93 -144 -117 -108 -139 16 -11 65 21 236 149 l43 32
-23 25 -23 26 -125 -93z"/>
<path d="M676 522 c-25 -75 -46 -150 -46 -165 0 -25 3 -28 27 -25 25 3 30 13
75 148 26 79 48 148 48 151 0 4 -13 12 -29 17 l-30 11 -45 -137z"/>
</g>
</svg>
